<svg xmlns="http://www.w3.org/2000/svg" viewBox="0 0 512 512">
  <rect width="512" height="512" fill="#ffffff" rx="15%" />
  <path fill="#3CB4FF" d="M400 172c0-29-23.2-52.5-52-52.5h-56.5v52.5h56.5v35h-56.5v70h56.5c28.8 0 52-23.5 52-52.5v-52.5zm-170 0c0-29-23.2-52.5-52-52.5h-66v157.5h52.5v-70H178c28.8 0 52-23.5 52-52.5v-52.5zm0 0v35h-56.5v-35H230zm-118 122.5H59.5v-157.5H112v157.5zm288 140c0-28.8-23.5-52-52.5-52s-52.5 23.2-52.5 52 23.5 52 52.5 52 52.5-23.2 52.5-52zm-35 0c0 9.7-7.8 17.5-17.5 17.5s-17.5-7.8-17.5-17.5 7.8-17.5 17.5-17.5 17.5 7.8 17.5 17.5zM350 337c-10.5 0-20 8.5-20 19s9.5 19 20 19 20-8.5 20-19-9.5-19-20-19z"/>
</svg>